<?xml version="1.0" encoding="iso-8859-1"?>
<!-- Generator: Adobe Illustrator 19.1.0, SVG Export Plug-In . SVG Version: 6.00 Build 0)  -->
<svg version="1.1" id="Capa_1" xmlns="http://www.w3.org/2000/svg" xmlns:xlink="http://www.w3.org/1999/xlink" x="0px" y="0px"
	 viewBox="0 0 65.045 65.045" style="enable-background:new 0 0 65.045 65.045;" xml:space="preserve">
<g>
	<g id="group-10svg">
		<path id="path-1_1_" style="fill:#EDC951;" d="M55.522,65.045h-41V5.003h41V65.045z"/>
		<path id="path-2_1_" style="fill:#FF917B;" d="M49.522,59.04h-28V10.007h28V59.04z"/>
		<path id="path-3_1_" d="M52.022,63.043h-41c-0.829,0-1.5-0.672-1.5-1.501V1.501c0-0.829,0.671-1.501,1.5-1.501h41
			c0.829,0,1.5,0.672,1.5,1.501v60.041C53.522,62.371,52.851,63.043,52.022,63.043z M12.523,60.041h38V3.002h-38V60.041z"/>
		<path id="path-4_1_" d="M41.522,34.023h-6c-0.829,0-1.5-0.672-1.5-1.501c0-0.829,0.671-1.501,1.5-1.501h6
			c0.829,0,1.5,0.672,1.5,1.501C43.022,33.351,42.351,34.023,41.522,34.023z"/>
		<path id="path-5_1_" d="M46.022,57.039h-28c-0.829,0-1.5-0.672-1.5-1.501V6.504c0-0.829,0.671-1.501,1.5-1.501h28
			c0.829,0,1.5,0.672,1.5,1.501v49.034C47.522,56.367,46.851,57.039,46.022,57.039z M19.523,54.037h25V8.005h-25V54.037z"/>
	</g>
</g>
<g>
</g>
<g>
</g>
<g>
</g>
<g>
</g>
<g>
</g>
<g>
</g>
<g>
</g>
<g>
</g>
<g>
</g>
<g>
</g>
<g>
</g>
<g>
</g>
<g>
</g>
<g>
</g>
<g>
</g>
</svg>
