<svg id="icon" xmlns="http://www.w3.org/2000/svg" viewBox="0 0 512 512"><defs><style>.cls-1{fill:#e8be95;}.cls-2{fill:#f9bc73;}.cls-3{fill:#ffdaae;}.cls-4{fill:#ffd3a4;}.cls-5{fill:#ffe9d2;}.cls-6{fill:#4d4d4d;}</style></defs><title>coin</title><path class="cls-1" d="M426.62,278.22a170.62,170.62,0,0,1-341.24,0V233.78H426.62Z"/><circle class="cls-2" cx="256" cy="233.78" r="170.62"/><circle class="cls-3" cx="256" cy="233.78" r="112.07"/><path class="cls-4" d="M298.34,68.45a170.78,170.78,0,0,0-213,165.33c0,2.44.06,4.87.16,7.29C189.14,238.41,275.29,165.65,298.34,68.45Z"/><path class="cls-5" d="M277.16,123.73A112,112,0,0,0,144,231.8,225.3,225.3,0,0,0,277.16,123.73Z"/><path class="cls-6" d="M421.34,320.92a5.71,5.71,0,0,0-7.09,3.86l-.27.91A5.71,5.71,0,1,0,424.92,329l.29-.95A5.71,5.71,0,0,0,421.34,320.92Z"/><path class="cls-6" d="M256,57.45c-97.23,0-176.33,79.1-176.33,176.33v44.44a176,176,0,0,0,59.92,132.33,6.2,6.2,0,0,0,1.3,1.15,176.31,176.31,0,0,0,274.63-58.23,5.71,5.71,0,0,0-10.33-4.88,163.85,163.85,0,0,1-31.77,45.29v-5.6a5.71,5.71,0,0,0-11.42,0V404.4A165.51,165.51,0,0,1,261.71,443V429.55a5.71,5.71,0,1,0-11.42,0V443a164.13,164.13,0,0,1-100.65-38.89V388.28a5.71,5.71,0,1,0-11.42,0v5.25A164.57,164.57,0,0,1,92.51,299.9a175.68,175.68,0,0,0,15.21,29.35,5.71,5.71,0,0,0,9.6-6.19,164.24,164.24,0,0,1-26.24-89.28c0-90.94,74-164.92,164.92-164.92s164.92,74,164.92,164.92S346.94,398.7,256,398.7a165.08,165.08,0,0,1-56.35-9.82,5.72,5.72,0,0,0-2.41-.9,164.41,164.41,0,0,1-59.85-39.61,5.71,5.71,0,1,0-8.21,7.93,176,176,0,0,0,61.56,41.42v15.82a5.71,5.71,0,0,0,11.42,0V401.8a177.48,177.48,0,0,0,108-.2v11.94a5.71,5.71,0,1,0,11.42,0V397.47c64.86-26.06,110.78-89.61,110.78-163.69C432.33,136.55,353.23,57.45,256,57.45Z"/><path class="cls-6" d="M163.56,170.15A5.72,5.72,0,0,0,155.7,172a117.62,117.62,0,1,0,62.48-49.8A5.71,5.71,0,1,0,221.84,133a106.39,106.39,0,1,1-56.42,45A5.72,5.72,0,0,0,163.56,170.15Z"/><path class="cls-6" d="M188.21,137.45c-1.09.77-2.17,1.56-3.23,2.36a5.71,5.71,0,0,0,6.89,9.11q1.44-1.09,2.91-2.13a5.71,5.71,0,1,0-6.57-9.34Z"/><path class="cls-6" d="M256.14,176.49a5.71,5.71,0,0,0-5.7,5.71v8.59a24.35,24.35,0,0,0,.31,48.7h10.79a12.94,12.94,0,0,1,0,25.88H240.62a5.71,5.71,0,1,0,0,11.42h9.82v8.57a5.71,5.71,0,1,0,11.41,0v-8.59a24.35,24.35,0,0,0-.31-48.7H250.75a12.94,12.94,0,0,1,0-25.88h20.91a5.71,5.71,0,0,0,0-11.42h-9.81V182.2A5.71,5.71,0,0,0,256.14,176.49Z"/><path class="cls-6" d="M194.27,228.5a6.69,6.69,0,0,0-1,.53,5.46,5.46,0,0,0-.87.72,5.74,5.74,0,0,0-1.67,4,6,6,0,0,0,.12,1.13,5.28,5.28,0,0,0,.33,1.07,6.08,6.08,0,0,0,.51,1,6.73,6.73,0,0,0,.71.87,5.72,5.72,0,0,0,8.08,0,5.34,5.34,0,0,0,.7-.87,6.18,6.18,0,0,0,.53-1,6.94,6.94,0,0,0,.33-1.07,6,6,0,0,0,.11-1.13,5.7,5.7,0,0,0-1.67-4,5.94,5.94,0,0,0-.87-.72,6.69,6.69,0,0,0-1-.53,5.29,5.29,0,0,0-1.07-.31,5.19,5.19,0,0,0-2.22,0A5.49,5.49,0,0,0,194.27,228.5Z"/><path class="cls-6" d="M311.1,237a5.86,5.86,0,0,0,.69.87,5.8,5.8,0,0,0,4,1.67,5.71,5.71,0,0,0,4-1.67,6.79,6.79,0,0,0,.72-.87,6.13,6.13,0,0,0,.52-1,5.35,5.35,0,0,0,.43-2.2,5.69,5.69,0,0,0-1.67-4A4.7,4.7,0,0,0,319,229a6.12,6.12,0,0,0-1-.53,5.72,5.72,0,0,0-7.9,5.27,6,6,0,0,0,.12,1.13,5.28,5.28,0,0,0,.33,1.07A4.9,4.9,0,0,0,311.1,237Z"/></svg>
